<svg width="189" height="189" viewBox="0 0 189 189" fill="none" xmlns="http://www.w3.org/2000/svg">
<path d="M97.2132 3.69382L107.83 29.183C109.091 32.2103 112.876 33.2245 115.482 31.2332L137.421 14.4674C139.54 12.848 142.56 14.5919 142.217 17.2368L138.667 44.6195C138.246 47.8717 141.016 50.6425 144.269 50.2208L171.651 46.6707C174.296 46.3278 176.04 49.3483 174.421 51.4674L157.655 73.4065C155.664 76.0122 156.678 79.7971 159.705 81.0581L185.194 91.675C187.656 92.7004 187.656 96.1882 185.194 97.2137L159.705 107.831C156.678 109.092 155.664 112.876 157.655 115.482L174.421 137.421C176.04 139.54 174.296 142.561 171.651 142.218L144.269 138.668C141.016 138.246 138.246 141.017 138.667 144.269L142.217 171.652C142.56 174.297 139.54 176.041 137.421 174.421L115.482 157.655C112.876 155.664 109.091 156.678 107.83 159.706L97.2132 185.195C96.1877 187.657 92.7 187.657 91.6745 185.195L81.0576 159.706C79.7966 156.678 76.0117 155.664 73.406 157.655L51.4669 174.421C49.3479 176.041 46.3273 174.297 46.6702 171.652L50.2203 144.269C50.642 141.017 47.8712 138.246 44.619 138.668L17.2363 142.218C14.5914 142.561 12.8475 139.54 14.4669 137.421L31.2327 115.482C33.224 112.876 32.2098 109.092 29.1825 107.831L3.69334 97.2137C1.23135 96.1882 1.23135 92.7004 3.69333 91.675L29.1825 81.0581C32.2098 79.7971 33.224 76.0122 31.2327 73.4065L14.4669 51.4674C12.8475 49.3483 14.5914 46.3278 17.2363 46.6707L44.619 50.2208C47.8712 50.6425 50.642 47.8717 50.2203 44.6195L46.6702 17.2368C46.3273 14.5919 49.3479 12.848 51.4669 14.4674L73.406 31.2332C76.0117 33.2245 79.7966 32.2103 81.0576 29.183L91.6745 3.69383C92.7 1.23184 96.1877 1.23184 97.2132 3.69382Z" fill="#FFB627" stroke="black" stroke-width="2"/>
</svg>
